<svg xmlns="http://www.w3.org/2000/svg" xmlns:xlink="http://www.w3.org/1999/xlink" width="50" zoomAndPan="magnify" viewBox="0 0 37.5 37.499999" height="50" preserveAspectRatio="xMidYMid meet" version="1.0"><defs><g/></defs><g fill="#6db33f" fill-opacity="1"><g transform="translate(0.0000005, 25.214385)"><g><path d="M 9.421875 -9.375 L 8.828125 -4.828125 L 10.484375 -4.828125 L 10.484375 -3.484375 L 8.625 -3.484375 L 8.1875 0 L 6.71875 0 L 7.171875 -3.484375 L 4.1875 -3.484375 L 3.734375 0 L 2.25 0 L 2.71875 -3.484375 L 1.09375 -3.484375 L 1.09375 -4.828125 L 2.890625 -4.828125 L 3.515625 -9.375 L 1.84375 -9.375 L 1.84375 -10.71875 L 3.6875 -10.71875 L 4.140625 -14.15625 L 5.625 -14.15625 L 5.125 -10.71875 L 8.15625 -10.71875 L 8.609375 -14.15625 L 10.09375 -14.15625 L 9.609375 -10.71875 L 11.25 -10.71875 L 11.25 -9.375 Z M 4.359375 -4.828125 L 7.34375 -4.828125 L 7.984375 -9.375 L 4.96875 -9.375 Z M 4.359375 -4.828125 "/></g></g></g><g fill="#6db33f" fill-opacity="1"><g transform="translate(12.334425, 25.214385)"><g><path d="M 9.28125 -17.1875 L 9.28125 -15.828125 C 8.78125 -15.828125 8.328125 -15.773438 7.921875 -15.671875 C 7.515625 -15.578125 7.195312 -15.410156 6.96875 -15.171875 C 6.75 -14.929688 6.65625 -14.597656 6.6875 -14.171875 L 7.125 -9.96875 C 7.1875 -9.382812 7.148438 -8.90625 7.015625 -8.53125 C 6.890625 -8.15625 6.671875 -7.859375 6.359375 -7.640625 C 6.054688 -7.429688 5.671875 -7.285156 5.203125 -7.203125 C 5.679688 -7.117188 6.070312 -6.972656 6.375 -6.765625 C 6.6875 -6.566406 6.90625 -6.28125 7.03125 -5.90625 C 7.15625 -5.53125 7.1875 -5.039062 7.125 -4.4375 L 6.6875 -0.21875 C 6.65625 0.207031 6.75 0.539062 6.96875 0.78125 C 7.1875 1.019531 7.5 1.1875 7.90625 1.28125 C 8.320312 1.375 8.78125 1.421875 9.28125 1.421875 L 9.28125 2.78125 C 8.707031 2.78125 8.15625 2.726562 7.625 2.625 C 7.101562 2.53125 6.640625 2.363281 6.234375 2.125 C 5.828125 1.882812 5.519531 1.554688 5.3125 1.140625 C 5.101562 0.734375 5.035156 0.210938 5.109375 -0.421875 L 5.515625 -4.328125 C 5.578125 -4.796875 5.535156 -5.191406 5.390625 -5.515625 C 5.253906 -5.835938 4.953125 -6.082031 4.484375 -6.25 C 4.023438 -6.425781 3.335938 -6.515625 2.421875 -6.515625 L 2.421875 -7.890625 C 3.335938 -7.890625 4.023438 -7.96875 4.484375 -8.125 C 4.953125 -8.289062 5.253906 -8.535156 5.390625 -8.859375 C 5.535156 -9.179688 5.578125 -9.578125 5.515625 -10.046875 L 5.109375 -13.96875 C 5.035156 -14.601562 5.101562 -15.125 5.3125 -15.53125 C 5.519531 -15.945312 5.820312 -16.273438 6.21875 -16.515625 C 6.625 -16.753906 7.09375 -16.925781 7.625 -17.03125 C 8.15625 -17.132812 8.707031 -17.1875 9.28125 -17.1875 Z M 9.28125 -17.1875 "/></g></g></g><g fill="#6db33f" fill-opacity="1"><g transform="translate(24.66885, 25.214385)"><g><path d="M 3.046875 -17.1875 C 3.628906 -17.1875 4.179688 -17.132812 4.703125 -17.03125 C 5.234375 -16.925781 5.703125 -16.753906 6.109375 -16.515625 C 6.515625 -16.273438 6.820312 -15.945312 7.03125 -15.53125 C 7.238281 -15.125 7.304688 -14.601562 7.234375 -13.96875 L 6.8125 -10.046875 C 6.757812 -9.578125 6.820312 -9.179688 7 -8.859375 C 7.175781 -8.535156 7.492188 -8.289062 7.953125 -8.125 C 8.421875 -7.96875 9.078125 -7.890625 9.921875 -7.890625 L 9.921875 -6.515625 C 9.085938 -6.515625 8.4375 -6.425781 7.96875 -6.25 C 7.5 -6.082031 7.175781 -5.835938 7 -5.515625 C 6.820312 -5.191406 6.757812 -4.796875 6.8125 -4.328125 L 7.234375 -0.421875 C 7.296875 0.210938 7.222656 0.734375 7.015625 1.140625 C 6.816406 1.554688 6.515625 1.882812 6.109375 2.125 C 5.710938 2.363281 5.25 2.53125 4.71875 2.625 C 4.1875 2.726562 3.628906 2.78125 3.046875 2.78125 L 3.046875 1.421875 C 3.546875 1.421875 4 1.375 4.40625 1.28125 C 4.820312 1.1875 5.140625 1.019531 5.359375 0.78125 C 5.585938 0.539062 5.679688 0.207031 5.640625 -0.21875 L 5.21875 -4.4375 C 5.15625 -5.039062 5.1875 -5.53125 5.3125 -5.90625 C 5.445312 -6.28125 5.679688 -6.566406 6.015625 -6.765625 C 6.359375 -6.960938 6.804688 -7.097656 7.359375 -7.171875 C 6.828125 -7.265625 6.390625 -7.421875 6.046875 -7.640625 C 5.710938 -7.859375 5.472656 -8.15625 5.328125 -8.53125 C 5.191406 -8.90625 5.15625 -9.382812 5.21875 -9.96875 L 5.640625 -14.171875 C 5.679688 -14.597656 5.585938 -14.929688 5.359375 -15.171875 C 5.140625 -15.410156 4.828125 -15.578125 4.421875 -15.671875 C 4.015625 -15.773438 3.554688 -15.828125 3.046875 -15.828125 Z M 3.046875 -17.1875 "/></g></g></g></svg>