<svg xmlns="http://www.w3.org/2000/svg" xmlns:xlink="http://www.w3.org/1999/xlink" width="851" zoomAndPan="magnify" viewBox="0 0 638.25 236.249991" height="315" preserveAspectRatio="xMidYMid meet" version="1.0"><defs><g/></defs><g fill="#6db33f" fill-opacity="1"><g transform="translate(32.749443, 169.07128)"><g><path d="M 72.296875 -71.90625 L 67.640625 -36.984375 L 80.421875 -36.984375 L 80.421875 -26.734375 L 66.15625 -26.734375 L 62.84375 0 L 51.484375 0 L 55.03125 -26.734375 L 32.09375 -26.734375 L 28.625 0 L 17.265625 0 L 20.8125 -26.734375 L 8.359375 -26.734375 L 8.359375 -36.984375 L 22.15625 -36.984375 L 26.96875 -71.90625 L 14.1875 -71.90625 L 14.1875 -82.234375 L 28.3125 -82.234375 L 31.78125 -108.5625 L 43.125 -108.5625 L 39.34375 -82.234375 L 62.515625 -82.234375 L 66 -108.5625 L 77.34375 -108.5625 L 73.640625 -82.234375 L 86.25 -82.234375 L 86.25 -71.90625 Z M 33.4375 -36.984375 L 56.375 -36.984375 L 61.1875 -71.90625 L 38.078125 -71.90625 Z M 33.4375 -36.984375 "/></g></g></g><g fill="#6db33f" fill-opacity="1"><g transform="translate(127.34442, 169.07128)"><g><path d="M 71.203125 -131.75 L 71.203125 -121.34375 C 67.359375 -121.34375 63.875 -120.957031 60.75 -120.1875 C 57.625 -119.425781 55.207031 -118.125 53.5 -116.28125 C 51.789062 -114.445312 51.066406 -111.925781 51.328125 -108.71875 L 54.640625 -76.40625 C 55.109375 -71.988281 54.84375 -68.332031 53.84375 -65.4375 C 52.851562 -62.550781 51.1875 -60.289062 48.84375 -58.65625 C 46.5 -57.03125 43.515625 -55.875 39.890625 -55.1875 C 43.566406 -54.5625 46.585938 -53.472656 48.953125 -51.921875 C 51.328125 -50.367188 52.984375 -48.160156 53.921875 -45.296875 C 54.867188 -42.429688 55.109375 -38.660156 54.640625 -33.984375 L 51.328125 -1.65625 C 51.066406 1.601562 51.773438 4.148438 53.453125 5.984375 C 55.140625 7.828125 57.554688 9.113281 60.703125 9.84375 C 63.859375 10.582031 67.359375 10.953125 71.203125 10.953125 L 71.203125 21.359375 C 66.785156 21.359375 62.550781 20.976562 58.5 20.21875 C 54.457031 19.457031 50.882812 18.15625 47.78125 16.3125 C 44.675781 14.476562 42.332031 11.96875 40.75 8.78125 C 39.175781 5.601562 38.65625 1.597656 39.1875 -3.234375 L 42.34375 -33.1875 C 42.757812 -36.820312 42.425781 -39.875 41.34375 -42.34375 C 40.269531 -44.8125 37.957031 -46.6875 34.40625 -47.96875 C 30.863281 -49.257812 25.570312 -49.90625 18.53125 -49.90625 L 18.53125 -60.46875 C 25.570312 -60.46875 30.863281 -61.097656 34.40625 -62.359375 C 37.957031 -63.617188 40.269531 -65.484375 41.34375 -67.953125 C 42.425781 -70.429688 42.757812 -73.457031 42.34375 -77.03125 L 39.1875 -107.15625 C 38.65625 -111.988281 39.175781 -115.992188 40.75 -119.171875 C 42.332031 -122.347656 44.660156 -124.859375 47.734375 -126.703125 C 50.816406 -128.546875 54.394531 -129.847656 58.46875 -130.609375 C 62.539062 -131.367188 66.785156 -131.75 71.203125 -131.75 Z M 71.203125 -131.75 "/></g></g></g><g fill="#6db33f" fill-opacity="1"><g transform="translate(221.959595, 169.07128)"><g/></g></g><g fill="#6db33f" fill-opacity="1"><g transform="translate(316.554572, 169.07128)"><g/></g></g><g fill="#6db33f" fill-opacity="1"><g transform="translate(411.149548, 169.07128)"><g/></g></g><g fill="#6db33f" fill-opacity="1"><g transform="translate(505.758458, 169.07128)"><g><path d="M 23.421875 -131.75 C 27.835938 -131.75 32.066406 -131.367188 36.109375 -130.609375 C 40.160156 -129.847656 43.734375 -128.546875 46.828125 -126.703125 C 49.929688 -124.859375 52.285156 -122.347656 53.890625 -119.171875 C 55.492188 -115.992188 56.003906 -111.988281 55.421875 -107.15625 L 52.28125 -77.03125 C 51.851562 -73.457031 52.304688 -70.429688 53.640625 -67.953125 C 54.984375 -65.484375 57.441406 -63.617188 61.015625 -62.359375 C 64.597656 -61.097656 69.617188 -60.46875 76.078125 -60.46875 L 76.078125 -49.90625 C 69.671875 -49.90625 64.664062 -49.257812 61.0625 -47.96875 C 57.457031 -46.6875 54.984375 -44.8125 53.640625 -42.34375 C 52.304688 -39.875 51.851562 -36.820312 52.28125 -33.1875 L 55.421875 -3.234375 C 55.953125 1.597656 55.425781 5.601562 53.84375 8.78125 C 52.269531 11.96875 49.945312 14.476562 46.875 16.3125 C 43.800781 18.15625 40.226562 19.457031 36.15625 20.21875 C 32.082031 20.976562 27.835938 21.359375 23.421875 21.359375 L 23.421875 10.953125 C 27.253906 10.953125 30.734375 10.582031 33.859375 9.84375 C 36.984375 9.113281 39.414062 7.828125 41.15625 5.984375 C 42.894531 4.148438 43.601562 1.601562 43.28125 -1.65625 L 39.96875 -33.984375 C 39.5 -38.660156 39.765625 -42.429688 40.765625 -45.296875 C 41.765625 -48.160156 43.5625 -50.351562 46.15625 -51.875 C 48.757812 -53.40625 52.191406 -54.457031 56.453125 -55.03125 C 52.347656 -55.71875 48.992188 -56.898438 46.390625 -58.578125 C 43.796875 -60.265625 41.972656 -62.550781 40.921875 -65.4375 C 39.867188 -68.332031 39.550781 -71.988281 39.96875 -76.40625 L 43.28125 -108.71875 C 43.601562 -111.925781 42.894531 -114.445312 41.15625 -116.28125 C 39.414062 -118.125 36.992188 -119.425781 33.890625 -120.1875 C 30.796875 -120.957031 27.304688 -121.34375 23.421875 -121.34375 Z M 23.421875 -131.75 "/></g></g></g><g fill="#853fb3" fill-opacity="1"><g transform="translate(190.450226, 99.808148)"><g><path d="M 19.453125 -22.296875 C 19.453125 -23.472656 19.234375 -24.445312 18.796875 -25.21875 C 18.359375 -25.988281 17.695312 -26.5625 16.8125 -26.9375 C 15.925781 -27.3125 14.816406 -27.5 13.484375 -27.5 L 10.8125 -27.5 L 10.8125 -16.6875 L 13.890625 -16.6875 C 15.054688 -16.6875 16.050781 -16.882812 16.875 -17.28125 C 17.695312 -17.675781 18.332031 -18.285156 18.78125 -19.109375 C 19.226562 -19.941406 19.453125 -21.003906 19.453125 -22.296875 Z M 27.515625 -22.3125 C 27.515625 -19.75 26.960938 -17.632812 25.859375 -15.96875 C 24.765625 -14.300781 23.234375 -13.054688 21.265625 -12.234375 C 19.296875 -11.410156 17.003906 -11 14.390625 -11 L 10.8125 -11 L 10.8125 0 L 2.984375 0 L 2.984375 -33.078125 L 13.390625 -33.078125 C 17.878906 -33.078125 21.351562 -32.1875 23.8125 -30.40625 C 26.28125 -28.625 27.515625 -25.925781 27.515625 -22.3125 Z M 27.515625 -22.3125 "/></g></g></g><g fill="#853fb3" fill-opacity="1"><g transform="translate(219.081929, 99.808148)"><g><path d="M 3.578125 0 L 3.578125 -5.0625 L 6.921875 -5.0625 L 6.921875 -20.328125 L 3.578125 -20.328125 L 3.578125 -25.34375 L 12.671875 -25.34375 L 14.0625 -19.640625 C 14.96875 -21.816406 16.125 -23.4375 17.53125 -24.5 C 18.9375 -25.570312 20.660156 -26.109375 22.703125 -26.109375 C 23.554688 -26.109375 24.316406 -26.039062 24.984375 -25.90625 C 25.648438 -25.769531 26.28125 -25.582031 26.875 -25.34375 L 24.578125 -19.125 C 24.117188 -19.25 23.65625 -19.34375 23.1875 -19.40625 C 22.726562 -19.46875 22.222656 -19.5 21.671875 -19.5 C 20.015625 -19.5 18.5625 -18.820312 17.3125 -17.46875 C 16.0625 -16.113281 15.113281 -14.394531 14.46875 -12.3125 L 14.46875 -5.0625 L 19.46875 -5.0625 L 19.46875 0 Z M 20.734375 -14.75 L 20.734375 -22.15625 L 21.859375 -25.34375 L 26.875 -25.34375 L 25.46875 -14.75 Z M 20.734375 -14.75 "/></g></g></g><g fill="#853fb3" fill-opacity="1"><g transform="translate(247.713632, 99.808148)"><g><path d="M 14.3125 -26.1875 C 16.925781 -26.1875 19.144531 -25.628906 20.96875 -24.515625 C 22.800781 -23.398438 24.203125 -21.832031 25.171875 -19.8125 C 26.148438 -17.800781 26.640625 -15.445312 26.640625 -12.75 C 26.640625 -9.925781 26.148438 -7.5 25.171875 -5.46875 C 24.191406 -3.445312 22.785156 -1.894531 20.953125 -0.8125 C 19.117188 0.269531 16.90625 0.8125 14.3125 0.8125 C 11.738281 0.8125 9.53125 0.28125 7.6875 -0.78125 C 5.851562 -1.851562 4.445312 -3.398438 3.46875 -5.421875 C 2.488281 -7.441406 2 -9.867188 2 -12.703125 C 2 -15.390625 2.488281 -17.742188 3.46875 -19.765625 C 4.445312 -21.785156 5.851562 -23.359375 7.6875 -24.484375 C 9.53125 -25.617188 11.738281 -26.1875 14.3125 -26.1875 Z M 14.3125 -20.625 C 12.769531 -20.625 11.628906 -19.988281 10.890625 -18.71875 C 10.148438 -17.457031 9.78125 -15.453125 9.78125 -12.703125 C 9.78125 -9.898438 10.148438 -7.867188 10.890625 -6.609375 C 11.628906 -5.347656 12.769531 -4.71875 14.3125 -4.71875 C 15.863281 -4.71875 17.007812 -5.347656 17.75 -6.609375 C 18.488281 -7.867188 18.859375 -9.914062 18.859375 -12.75 C 18.859375 -15.476562 18.488281 -17.472656 17.75 -18.734375 C 17.007812 -19.992188 15.863281 -20.625 14.3125 -20.625 Z M 14.3125 -20.625 "/></g></g></g><g fill="#853fb3" fill-opacity="1"><g transform="translate(276.345334, 99.808148)"><g><path d="M 25.84375 -29.40625 L 27.609375 -23.859375 C 26.722656 -23.515625 25.679688 -23.257812 24.484375 -23.09375 C 23.296875 -22.9375 21.90625 -22.859375 20.3125 -22.859375 C 21.90625 -22.179688 23.117188 -21.335938 23.953125 -20.328125 C 24.785156 -19.316406 25.203125 -17.988281 25.203125 -16.34375 C 25.203125 -14.707031 24.765625 -13.25 23.890625 -11.96875 C 23.015625 -10.6875 21.769531 -9.679688 20.15625 -8.953125 C 18.550781 -8.222656 16.65625 -7.859375 14.46875 -7.859375 C 13.925781 -7.859375 13.414062 -7.878906 12.9375 -7.921875 C 12.457031 -7.972656 11.988281 -8.046875 11.53125 -8.140625 C 11.257812 -7.992188 11.050781 -7.785156 10.90625 -7.515625 C 10.757812 -7.242188 10.6875 -6.96875 10.6875 -6.6875 C 10.6875 -6.289062 10.847656 -5.929688 11.171875 -5.609375 C 11.503906 -5.285156 12.273438 -5.125 13.484375 -5.125 L 17.640625 -5.125 C 19.609375 -5.125 21.3125 -4.804688 22.75 -4.171875 C 24.195312 -3.535156 25.316406 -2.664062 26.109375 -1.5625 C 26.898438 -0.46875 27.296875 0.785156 27.296875 2.203125 C 27.296875 4.796875 26.160156 6.835938 23.890625 8.328125 C 21.617188 9.828125 18.238281 10.578125 13.75 10.578125 C 10.5 10.578125 7.988281 10.242188 6.21875 9.578125 C 4.445312 8.921875 3.210938 7.984375 2.515625 6.765625 C 1.828125 5.546875 1.484375 4.101562 1.484375 2.4375 L 8.15625 2.4375 C 8.15625 3.164062 8.300781 3.765625 8.59375 4.234375 C 8.894531 4.703125 9.460938 5.046875 10.296875 5.265625 C 11.128906 5.492188 12.34375 5.609375 13.9375 5.609375 C 15.539062 5.609375 16.765625 5.476562 17.609375 5.21875 C 18.453125 4.96875 19.03125 4.625 19.34375 4.1875 C 19.65625 3.75 19.8125 3.257812 19.8125 2.71875 C 19.8125 1.96875 19.515625 1.363281 18.921875 0.90625 C 18.335938 0.445312 17.410156 0.21875 16.140625 0.21875 L 12.09375 0.21875 C 9.363281 0.21875 7.375 -0.285156 6.125 -1.296875 C 4.882812 -2.304688 4.265625 -3.488281 4.265625 -4.84375 C 4.265625 -5.78125 4.515625 -6.671875 5.015625 -7.515625 C 5.523438 -8.359375 6.234375 -9.066406 7.140625 -9.640625 C 5.515625 -10.503906 4.347656 -11.519531 3.640625 -12.6875 C 2.941406 -13.851562 2.59375 -15.253906 2.59375 -16.890625 C 2.59375 -18.804688 3.078125 -20.453125 4.046875 -21.828125 C 5.023438 -23.203125 6.367188 -24.265625 8.078125 -25.015625 C 9.785156 -25.765625 11.738281 -26.140625 13.9375 -26.140625 C 15.832031 -26.109375 17.476562 -26.238281 18.875 -26.53125 C 20.28125 -26.820312 21.539062 -27.222656 22.65625 -27.734375 C 23.769531 -28.253906 24.832031 -28.8125 25.84375 -29.40625 Z M 14.125 -21.234375 C 12.9375 -21.234375 11.988281 -20.851562 11.28125 -20.09375 C 10.582031 -19.34375 10.234375 -18.3125 10.234375 -17 C 10.234375 -15.59375 10.59375 -14.515625 11.3125 -13.765625 C 12.03125 -13.023438 12.96875 -12.65625 14.125 -12.65625 C 15.382812 -12.65625 16.34375 -13.023438 17 -13.765625 C 17.664062 -14.515625 18 -15.625 18 -17.09375 C 18 -18.507812 17.671875 -19.550781 17.015625 -20.21875 C 16.359375 -20.894531 15.394531 -21.234375 14.125 -21.234375 Z M 14.125 -21.234375 "/></g></g></g><g fill="#853fb3" fill-opacity="1"><g transform="translate(304.977037, 99.808148)"><g><path d="M 3.578125 0 L 3.578125 -5.0625 L 6.921875 -5.0625 L 6.921875 -20.328125 L 3.578125 -20.328125 L 3.578125 -25.34375 L 12.671875 -25.34375 L 14.0625 -19.640625 C 14.96875 -21.816406 16.125 -23.4375 17.53125 -24.5 C 18.9375 -25.570312 20.660156 -26.109375 22.703125 -26.109375 C 23.554688 -26.109375 24.316406 -26.039062 24.984375 -25.90625 C 25.648438 -25.769531 26.28125 -25.582031 26.875 -25.34375 L 24.578125 -19.125 C 24.117188 -19.25 23.65625 -19.34375 23.1875 -19.40625 C 22.726562 -19.46875 22.222656 -19.5 21.671875 -19.5 C 20.015625 -19.5 18.5625 -18.820312 17.3125 -17.46875 C 16.0625 -16.113281 15.113281 -14.394531 14.46875 -12.3125 L 14.46875 -5.0625 L 19.46875 -5.0625 L 19.46875 0 Z M 20.734375 -14.75 L 20.734375 -22.15625 L 21.859375 -25.34375 L 26.875 -25.34375 L 25.46875 -14.75 Z M 20.734375 -14.75 "/></g></g></g><g fill="#853fb3" fill-opacity="1"><g transform="translate(333.60874, 99.808148)"><g><path d="M 24.671875 -7.296875 C 24.671875 -6.347656 24.800781 -5.65625 25.0625 -5.21875 C 25.332031 -4.789062 25.757812 -4.46875 26.34375 -4.25 L 24.796875 0.71875 C 23.296875 0.570312 22.03125 0.242188 21 -0.265625 C 19.976562 -0.785156 19.175781 -1.570312 18.59375 -2.625 C 17.625 -1.46875 16.382812 -0.601562 14.875 -0.03125 C 13.363281 0.53125 11.816406 0.8125 10.234375 0.8125 C 7.628906 0.8125 5.550781 0.0664062 4 -1.421875 C 2.445312 -2.910156 1.671875 -4.820312 1.671875 -7.15625 C 1.671875 -9.914062 2.75 -12.039062 4.90625 -13.53125 C 7.0625 -15.03125 10.097656 -15.78125 14.015625 -15.78125 L 17.421875 -15.78125 L 17.421875 -16.734375 C 17.421875 -18.054688 16.992188 -19.035156 16.140625 -19.671875 C 15.296875 -20.304688 14.050781 -20.625 12.40625 -20.625 C 11.59375 -20.625 10.550781 -20.503906 9.28125 -20.265625 C 8.007812 -20.035156 6.738281 -19.707031 5.46875 -19.28125 L 3.71875 -24.296875 C 5.363281 -24.921875 7.070312 -25.390625 8.84375 -25.703125 C 10.613281 -26.023438 12.203125 -26.1875 13.609375 -26.1875 C 17.378906 -26.1875 20.164062 -25.414062 21.96875 -23.875 C 23.769531 -22.34375 24.671875 -20.128906 24.671875 -17.234375 Z M 12.84375 -4.578125 C 13.65625 -4.578125 14.503906 -4.816406 15.390625 -5.296875 C 16.285156 -5.785156 16.960938 -6.476562 17.421875 -7.375 L 17.421875 -11.484375 L 15.5625 -11.484375 C 13.457031 -11.484375 11.910156 -11.160156 10.921875 -10.515625 C 9.941406 -9.867188 9.453125 -8.925781 9.453125 -7.6875 C 9.453125 -6.71875 9.75 -5.957031 10.34375 -5.40625 C 10.9375 -4.851562 11.769531 -4.578125 12.84375 -4.578125 Z M 12.84375 -4.578125 "/></g></g></g><g fill="#853fb3" fill-opacity="1"><g transform="translate(362.240442, 99.808148)"><g><path d="M 22.078125 -26.1875 C 23.285156 -26.1875 24.28125 -25.929688 25.0625 -25.421875 C 25.84375 -24.910156 26.421875 -24.109375 26.796875 -23.015625 C 27.179688 -21.929688 27.375 -20.515625 27.375 -18.765625 L 27.375 0 L 20.90625 0 L 20.90625 -17.90625 C 20.90625 -18.789062 20.820312 -19.414062 20.65625 -19.78125 C 20.488281 -20.144531 20.148438 -20.328125 19.640625 -20.328125 C 19.242188 -20.328125 18.832031 -20.210938 18.40625 -19.984375 C 17.988281 -19.753906 17.523438 -19.320312 17.015625 -18.6875 L 17.015625 0 L 11.71875 0 L 11.71875 -17.90625 C 11.71875 -18.789062 11.632812 -19.414062 11.46875 -19.78125 C 11.300781 -20.144531 10.960938 -20.328125 10.453125 -20.328125 C 10.054688 -20.328125 9.644531 -20.210938 9.21875 -19.984375 C 8.800781 -19.753906 8.335938 -19.320312 7.828125 -18.6875 L 7.828125 0 L 1.265625 0 L 1.265625 -25.34375 L 6.796875 -25.34375 L 7.296875 -22.890625 C 8.097656 -23.972656 8.90625 -24.789062 9.71875 -25.34375 C 10.53125 -25.90625 11.492188 -26.1875 12.609375 -26.1875 C 13.554688 -26.1875 14.367188 -25.941406 15.046875 -25.453125 C 15.722656 -24.960938 16.203125 -24.203125 16.484375 -23.171875 C 17.253906 -24.066406 18.097656 -24.789062 19.015625 -25.34375 C 19.941406 -25.90625 20.960938 -26.1875 22.078125 -26.1875 Z M 22.078125 -26.1875 "/></g></g></g><g fill="#853fb3" fill-opacity="1"><g transform="translate(390.872133, 99.808148)"><g><path d="M 24.671875 -7.296875 C 24.671875 -6.347656 24.800781 -5.65625 25.0625 -5.21875 C 25.332031 -4.789062 25.757812 -4.46875 26.34375 -4.25 L 24.796875 0.71875 C 23.296875 0.570312 22.03125 0.242188 21 -0.265625 C 19.976562 -0.785156 19.175781 -1.570312 18.59375 -2.625 C 17.625 -1.46875 16.382812 -0.601562 14.875 -0.03125 C 13.363281 0.53125 11.816406 0.8125 10.234375 0.8125 C 7.628906 0.8125 5.550781 0.0664062 4 -1.421875 C 2.445312 -2.910156 1.671875 -4.820312 1.671875 -7.15625 C 1.671875 -9.914062 2.75 -12.039062 4.90625 -13.53125 C 7.0625 -15.03125 10.097656 -15.78125 14.015625 -15.78125 L 17.421875 -15.78125 L 17.421875 -16.734375 C 17.421875 -18.054688 16.992188 -19.035156 16.140625 -19.671875 C 15.296875 -20.304688 14.050781 -20.625 12.40625 -20.625 C 11.59375 -20.625 10.550781 -20.503906 9.28125 -20.265625 C 8.007812 -20.035156 6.738281 -19.707031 5.46875 -19.28125 L 3.71875 -24.296875 C 5.363281 -24.921875 7.070312 -25.390625 8.84375 -25.703125 C 10.613281 -26.023438 12.203125 -26.1875 13.609375 -26.1875 C 17.378906 -26.1875 20.164062 -25.414062 21.96875 -23.875 C 23.769531 -22.34375 24.671875 -20.128906 24.671875 -17.234375 Z M 12.84375 -4.578125 C 13.65625 -4.578125 14.503906 -4.816406 15.390625 -5.296875 C 16.285156 -5.785156 16.960938 -6.476562 17.421875 -7.375 L 17.421875 -11.484375 L 15.5625 -11.484375 C 13.457031 -11.484375 11.910156 -11.160156 10.921875 -10.515625 C 9.941406 -9.867188 9.453125 -8.925781 9.453125 -7.6875 C 9.453125 -6.71875 9.75 -5.957031 10.34375 -5.40625 C 10.9375 -4.851562 11.769531 -4.578125 12.84375 -4.578125 Z M 12.84375 -4.578125 "/></g></g></g><g fill="#853fb3" fill-opacity="1"><g transform="translate(419.503847, 99.808148)"><g><path d="M 16.78125 -5.125 C 17.8125 -5.125 18.785156 -5.328125 19.703125 -5.734375 C 20.617188 -6.140625 21.53125 -6.660156 22.4375 -7.296875 L 25.796875 -2.53125 C 24.679688 -1.570312 23.320312 -0.773438 21.71875 -0.140625 C 20.125 0.492188 18.34375 0.8125 16.375 0.8125 C 13.65625 0.8125 11.316406 0.253906 9.359375 -0.859375 C 7.398438 -1.984375 5.894531 -3.546875 4.84375 -5.546875 C 3.789062 -7.546875 3.265625 -9.863281 3.265625 -12.5 C 3.265625 -15.144531 3.800781 -17.5 4.875 -19.5625 C 5.945312 -21.625 7.472656 -23.242188 9.453125 -24.421875 C 11.441406 -25.597656 13.796875 -26.1875 16.515625 -26.1875 C 18.441406 -26.1875 20.15625 -25.914062 21.65625 -25.375 C 23.164062 -24.84375 24.546875 -24.054688 25.796875 -23.015625 L 22.53125 -18.46875 C 21.664062 -19.070312 20.753906 -19.539062 19.796875 -19.875 C 18.847656 -20.207031 17.859375 -20.375 16.828125 -20.375 C 15.117188 -20.375 13.742188 -19.773438 12.703125 -18.578125 C 11.660156 -17.378906 11.140625 -15.351562 11.140625 -12.5 C 11.140625 -10.644531 11.382812 -9.175781 11.875 -8.09375 C 12.375 -7.019531 13.046875 -6.253906 13.890625 -5.796875 C 14.742188 -5.347656 15.707031 -5.125 16.78125 -5.125 Z M 16.78125 -5.125 "/></g></g></g><g fill="#853fb3" fill-opacity="1"><g transform="translate(448.135561, 99.808148)"><g><path d="M 18.828125 -25.34375 L 18.828125 -5.15625 L 25.28125 -5.15625 L 25.28125 0 L 4.109375 0 L 4.109375 -5.15625 L 11.296875 -5.15625 L 11.296875 -20.1875 L 4.34375 -20.1875 L 4.34375 -25.34375 Z M 14.265625 -38.609375 C 15.578125 -38.609375 16.644531 -38.203125 17.46875 -37.390625 C 18.300781 -36.585938 18.71875 -35.582031 18.71875 -34.375 C 18.71875 -33.164062 18.300781 -32.148438 17.46875 -31.328125 C 16.644531 -30.503906 15.578125 -30.09375 14.265625 -30.09375 C 12.953125 -30.09375 11.875 -30.503906 11.03125 -31.328125 C 10.195312 -32.148438 9.78125 -33.164062 9.78125 -34.375 C 9.78125 -35.582031 10.195312 -36.585938 11.03125 -37.390625 C 11.875 -38.203125 12.953125 -38.609375 14.265625 -38.609375 Z M 14.265625 -38.609375 "/></g></g></g><g fill="#853fb3" fill-opacity="1"><g transform="translate(476.767275, 99.808148)"><g><path d="M 14.3125 -26.1875 C 16.925781 -26.1875 19.144531 -25.628906 20.96875 -24.515625 C 22.800781 -23.398438 24.203125 -21.832031 25.171875 -19.8125 C 26.148438 -17.800781 26.640625 -15.445312 26.640625 -12.75 C 26.640625 -9.925781 26.148438 -7.5 25.171875 -5.46875 C 24.191406 -3.445312 22.785156 -1.894531 20.953125 -0.8125 C 19.117188 0.269531 16.90625 0.8125 14.3125 0.8125 C 11.738281 0.8125 9.53125 0.28125 7.6875 -0.78125 C 5.851562 -1.851562 4.445312 -3.398438 3.46875 -5.421875 C 2.488281 -7.441406 2 -9.867188 2 -12.703125 C 2 -15.390625 2.488281 -17.742188 3.46875 -19.765625 C 4.445312 -21.785156 5.851562 -23.359375 7.6875 -24.484375 C 9.53125 -25.617188 11.738281 -26.1875 14.3125 -26.1875 Z M 14.3125 -20.625 C 12.769531 -20.625 11.628906 -19.988281 10.890625 -18.71875 C 10.148438 -17.457031 9.78125 -15.453125 9.78125 -12.703125 C 9.78125 -9.898438 10.148438 -7.867188 10.890625 -6.609375 C 11.628906 -5.347656 12.769531 -4.71875 14.3125 -4.71875 C 15.863281 -4.71875 17.007812 -5.347656 17.75 -6.609375 C 18.488281 -7.867188 18.859375 -9.914062 18.859375 -12.75 C 18.859375 -15.476562 18.488281 -17.472656 17.75 -18.734375 C 17.007812 -19.992188 15.863281 -20.625 14.3125 -20.625 Z M 17.953125 -39.859375 L 20.890625 -34.171875 L 9.625 -29.71875 L 7.546875 -33.53125 Z M 17.953125 -39.859375 "/></g></g></g><g fill="#853fb3" fill-opacity="1"><g transform="translate(505.398988, 99.808148)"><g><path d="M 3.34375 0 L 3.34375 -25.34375 L 9.921875 -25.34375 L 10.453125 -22.40625 C 11.578125 -23.6875 12.769531 -24.632812 14.03125 -25.25 C 15.289062 -25.875 16.722656 -26.1875 18.328125 -26.1875 C 20.492188 -26.1875 22.195312 -25.523438 23.4375 -24.203125 C 24.675781 -22.878906 25.296875 -21.015625 25.296875 -18.609375 L 25.296875 0 L 17.75 0 L 17.75 -16.4375 C 17.75 -17.476562 17.675781 -18.300781 17.53125 -18.90625 C 17.394531 -19.519531 17.144531 -19.957031 16.78125 -20.21875 C 16.425781 -20.488281 15.941406 -20.625 15.328125 -20.625 C 14.796875 -20.625 14.28125 -20.503906 13.78125 -20.265625 C 13.28125 -20.035156 12.789062 -19.707031 12.3125 -19.28125 C 11.832031 -18.851562 11.359375 -18.335938 10.890625 -17.734375 L 10.890625 0 Z M 3.34375 0 "/></g></g></g><g fill="#3fa7b3" fill-opacity="1"><g transform="translate(276.345505, 167.094535)"><g><path d="M 14.46875 -6.109375 L 20.6875 -33.078125 L 28.71875 -33.078125 L 19.171875 0 L 9.46875 0 L -0.03125 -33.078125 L 8.28125 -33.078125 Z M 14.46875 -6.109375 "/></g></g></g><g fill="#3fa7b3" fill-opacity="1"><g transform="translate(304.977207, 167.094535)"><g><path d="M 25.0625 -33.078125 L 25.0625 -27.359375 L 18.234375 -27.359375 L 18.234375 -5.75 L 25.0625 -5.75 L 25.0625 0 L 3.578125 0 L 3.578125 -5.75 L 10.40625 -5.75 L 10.40625 -27.359375 L 3.578125 -27.359375 L 3.578125 -33.078125 Z M 25.0625 -33.078125 "/></g></g></g><g fill="#3fa7b3" fill-opacity="1"><g transform="translate(333.60891, 167.094535)"><g><path d="M 27.109375 -9.671875 C 27.109375 -7.617188 26.570312 -5.800781 25.5 -4.21875 C 24.425781 -2.644531 22.882812 -1.410156 20.875 -0.515625 C 18.875 0.367188 16.46875 0.8125 13.65625 0.8125 C 10.53125 0.8125 7.914062 0.351562 5.8125 -0.5625 C 3.707031 -1.476562 1.960938 -2.613281 0.578125 -3.96875 L 4.53125 -8.359375 C 5.757812 -7.285156 7.113281 -6.457031 8.59375 -5.875 C 10.070312 -5.300781 11.695312 -5.015625 13.46875 -5.015625 C 14.5625 -5.015625 15.519531 -5.171875 16.34375 -5.484375 C 17.175781 -5.804688 17.820312 -6.269531 18.28125 -6.875 C 18.738281 -7.476562 18.96875 -8.207031 18.96875 -9.0625 C 18.96875 -9.875 18.785156 -10.554688 18.421875 -11.109375 C 18.054688 -11.671875 17.441406 -12.175781 16.578125 -12.625 C 15.710938 -13.070312 14.503906 -13.523438 12.953125 -13.984375 C 10.378906 -14.773438 8.304688 -15.648438 6.734375 -16.609375 C 5.171875 -17.566406 4.035156 -18.671875 3.328125 -19.921875 C 2.617188 -21.179688 2.265625 -22.648438 2.265625 -24.328125 C 2.265625 -26.347656 2.820312 -28.070312 3.9375 -29.5 C 5.0625 -30.925781 6.570312 -32.019531 8.46875 -32.78125 C 10.363281 -33.539062 12.445312 -33.921875 14.71875 -33.921875 C 17.28125 -33.921875 19.539062 -33.550781 21.5 -32.8125 C 23.457031 -32.070312 25.15625 -31.015625 26.59375 -29.640625 L 22.890625 -25.390625 C 21.773438 -26.328125 20.570312 -27.019531 19.28125 -27.46875 C 17.988281 -27.925781 16.675781 -28.15625 15.34375 -28.15625 C 14.351562 -28.15625 13.484375 -28.03125 12.734375 -27.78125 C 11.992188 -27.539062 11.414062 -27.179688 11 -26.703125 C 10.582031 -26.222656 10.375 -25.628906 10.375 -24.921875 C 10.375 -24.210938 10.570312 -23.617188 10.96875 -23.140625 C 11.375 -22.671875 12.066406 -22.222656 13.046875 -21.796875 C 14.035156 -21.378906 15.40625 -20.890625 17.15625 -20.328125 C 19.238281 -19.691406 21.023438 -18.929688 22.515625 -18.046875 C 24.003906 -17.171875 25.140625 -16.0625 25.921875 -14.71875 C 26.710938 -13.382812 27.109375 -11.703125 27.109375 -9.671875 Z M 27.109375 -9.671875 "/></g></g></g><g fill="#3fa7b3" fill-opacity="1"><g transform="translate(362.240613, 167.094535)"><g><path d="M 26.640625 -33.078125 L 26.640625 -11.078125 C 26.640625 -8.816406 26.179688 -6.789062 25.265625 -5 C 24.347656 -3.207031 22.976562 -1.789062 21.15625 -0.75 C 19.332031 0.289062 17.050781 0.8125 14.3125 0.8125 C 11.5625 0.8125 9.273438 0.3125 7.453125 -0.6875 C 5.628906 -1.695312 4.265625 -3.09375 3.359375 -4.875 C 2.453125 -6.65625 2 -8.722656 2 -11.078125 L 2 -33.078125 L 9.859375 -33.078125 L 9.859375 -13.984375 C 9.859375 -11.003906 10.128906 -8.765625 10.671875 -7.265625 C 11.210938 -5.765625 12.425781 -5.015625 14.3125 -5.015625 C 16.207031 -5.015625 17.425781 -5.765625 17.96875 -7.265625 C 18.507812 -8.765625 18.78125 -11.003906 18.78125 -13.984375 L 18.78125 -33.078125 Z M 26.640625 -33.078125 "/></g></g></g><g fill="#3fa7b3" fill-opacity="1"><g transform="translate(390.872315, 167.094535)"><g><path d="M 19.09375 -7.140625 L 9.40625 -7.140625 L 7.65625 0 L -0.53125 0 L 9.59375 -33.078125 L 19.09375 -33.078125 L 29.21875 0 L 20.84375 0 Z M 10.640625 -12.8125 L 17.8125 -12.8125 L 14.21875 -27.453125 Z M 10.640625 -12.8125 "/></g></g></g><g fill="#3fa7b3" fill-opacity="1"><g transform="translate(419.504018, 167.094535)"><g><path d="M 4.4375 0 L 4.4375 -33.078125 L 12.265625 -33.078125 L 12.265625 -6.1875 L 26.609375 -6.1875 L 25.796875 0 Z M 4.4375 0 "/></g></g></g></svg>