<svg xmlns="http://www.w3.org/2000/svg" xmlns:xlink="http://www.w3.org/1999/xlink" width="80" zoomAndPan="magnify" viewBox="0 0 60 30.000001" height="40" preserveAspectRatio="xMidYMid meet" version="1.0"><defs><g/></defs><g fill="#6db33f" fill-opacity="1"><g transform="translate(3.870967, 20.198434)"><g><path d="M 7.984375 -7.9375 L 7.46875 -4.078125 L 8.875 -4.078125 L 8.875 -2.953125 L 7.296875 -2.953125 L 6.9375 0 L 5.6875 0 L 6.078125 -2.953125 L 3.546875 -2.953125 L 3.15625 0 L 1.90625 0 L 2.296875 -2.953125 L 0.921875 -2.953125 L 0.921875 -4.078125 L 2.453125 -4.078125 L 2.96875 -7.9375 L 1.5625 -7.9375 L 1.5625 -9.078125 L 3.125 -9.078125 L 3.5 -11.984375 L 4.765625 -11.984375 L 4.34375 -9.078125 L 6.90625 -9.078125 L 7.28125 -11.984375 L 8.53125 -11.984375 L 8.125 -9.078125 L 9.515625 -9.078125 L 9.515625 -7.9375 Z M 3.6875 -4.078125 L 6.21875 -4.078125 L 6.75 -7.9375 L 4.203125 -7.9375 Z M 3.6875 -4.078125 "/></g></g></g><g fill="#6db33f" fill-opacity="1"><g transform="translate(14.314554, 20.198434)"><g><path d="M 7.859375 -14.546875 L 7.859375 -13.390625 C 7.429688 -13.390625 7.046875 -13.347656 6.703125 -13.265625 C 6.359375 -13.179688 6.09375 -13.035156 5.90625 -12.828125 C 5.71875 -12.628906 5.640625 -12.351562 5.671875 -12 L 6.03125 -8.4375 C 6.082031 -7.945312 6.050781 -7.539062 5.9375 -7.21875 C 5.832031 -6.90625 5.648438 -6.65625 5.390625 -6.46875 C 5.128906 -6.289062 4.800781 -6.164062 4.40625 -6.09375 C 4.8125 -6.019531 5.144531 -5.894531 5.40625 -5.71875 C 5.664062 -5.550781 5.847656 -5.3125 5.953125 -5 C 6.054688 -4.6875 6.082031 -4.269531 6.03125 -3.75 L 5.671875 -0.1875 C 5.640625 0.175781 5.710938 0.457031 5.890625 0.65625 C 6.078125 0.863281 6.34375 1.003906 6.6875 1.078125 C 7.039062 1.160156 7.429688 1.203125 7.859375 1.203125 L 7.859375 2.359375 C 7.367188 2.359375 6.898438 2.316406 6.453125 2.234375 C 6.003906 2.148438 5.609375 2.003906 5.265625 1.796875 C 4.929688 1.597656 4.675781 1.320312 4.5 0.96875 C 4.320312 0.613281 4.265625 0.171875 4.328125 -0.359375 L 4.671875 -3.65625 C 4.722656 -4.0625 4.6875 -4.398438 4.5625 -4.671875 C 4.445312 -4.941406 4.191406 -5.148438 3.796875 -5.296875 C 3.410156 -5.441406 2.828125 -5.515625 2.046875 -5.515625 L 2.046875 -6.671875 C 2.828125 -6.671875 3.410156 -6.738281 3.796875 -6.875 C 4.191406 -7.019531 4.445312 -7.226562 4.5625 -7.5 C 4.6875 -7.769531 4.722656 -8.101562 4.671875 -8.5 L 4.328125 -11.828125 C 4.265625 -12.359375 4.320312 -12.800781 4.5 -13.15625 C 4.675781 -13.507812 4.929688 -13.785156 5.265625 -13.984375 C 5.609375 -14.191406 6.003906 -14.335938 6.453125 -14.421875 C 6.898438 -14.503906 7.367188 -14.546875 7.859375 -14.546875 Z M 7.859375 -14.546875 "/></g></g></g><g fill="#853fb3" fill-opacity="1"><g transform="translate(24.759347, 20.198434)"><g><path d="M 8.078125 -8.28125 C 8.078125 -8.90625 7.953125 -9.394531 7.703125 -9.75 C 7.460938 -10.113281 7.128906 -10.375 6.703125 -10.53125 C 6.285156 -10.695312 5.800781 -10.78125 5.25 -10.78125 L 3.53125 -10.78125 L 3.53125 -5.671875 L 5.203125 -5.671875 C 5.765625 -5.671875 6.257812 -5.742188 6.6875 -5.890625 C 7.113281 -6.046875 7.453125 -6.3125 7.703125 -6.6875 C 7.953125 -7.070312 8.078125 -7.601562 8.078125 -8.28125 Z M 9.703125 -8.296875 C 9.703125 -7.367188 9.5 -6.625 9.09375 -6.0625 C 8.695312 -5.5 8.148438 -5.085938 7.453125 -4.828125 C 6.765625 -4.578125 5.96875 -4.453125 5.0625 -4.453125 L 3.53125 -4.453125 L 3.53125 0 L 2.015625 0 L 2.015625 -11.984375 L 5.078125 -11.984375 C 6.503906 -11.984375 7.628906 -11.679688 8.453125 -11.078125 C 9.285156 -10.484375 9.703125 -9.554688 9.703125 -8.296875 Z M 9.703125 -8.296875 "/></g></g></g><g fill="#3fa7b3" fill-opacity="1"><g transform="translate(35.204525, 20.198434)"><g><path d="M 5.25 -1.71875 L 8.5 -11.984375 L 10.015625 -11.984375 L 6 0 L 4.4375 0 L 0.421875 -11.984375 L 2.046875 -11.984375 Z M 5.25 -1.71875 "/></g></g></g><g fill="#6db33f" fill-opacity="1"><g transform="translate(45.649701, 20.198434)"><g><path d="M 2.578125 -14.546875 C 3.066406 -14.546875 3.535156 -14.503906 3.984375 -14.421875 C 4.429688 -14.335938 4.828125 -14.191406 5.171875 -13.984375 C 5.515625 -13.785156 5.773438 -13.507812 5.953125 -13.15625 C 6.128906 -12.800781 6.1875 -12.359375 6.125 -11.828125 L 5.765625 -8.5 C 5.722656 -8.101562 5.773438 -7.769531 5.921875 -7.5 C 6.066406 -7.226562 6.335938 -7.019531 6.734375 -6.875 C 7.128906 -6.738281 7.6875 -6.671875 8.40625 -6.671875 L 8.40625 -5.515625 C 7.695312 -5.515625 7.140625 -5.441406 6.734375 -5.296875 C 6.335938 -5.148438 6.066406 -4.941406 5.921875 -4.671875 C 5.773438 -4.398438 5.722656 -4.0625 5.765625 -3.65625 L 6.125 -0.359375 C 6.175781 0.171875 6.113281 0.613281 5.9375 0.96875 C 5.769531 1.320312 5.515625 1.597656 5.171875 1.796875 C 4.835938 2.003906 4.441406 2.148438 3.984375 2.234375 C 3.535156 2.316406 3.066406 2.359375 2.578125 2.359375 L 2.578125 1.203125 C 3.003906 1.203125 3.390625 1.160156 3.734375 1.078125 C 4.078125 1.003906 4.34375 0.863281 4.53125 0.65625 C 4.726562 0.457031 4.8125 0.175781 4.78125 -0.1875 L 4.40625 -3.75 C 4.351562 -4.269531 4.382812 -4.6875 4.5 -5 C 4.613281 -5.3125 4.8125 -5.550781 5.09375 -5.71875 C 5.382812 -5.894531 5.765625 -6.015625 6.234375 -6.078125 C 5.773438 -6.148438 5.398438 -6.28125 5.109375 -6.46875 C 4.828125 -6.65625 4.628906 -6.90625 4.515625 -7.21875 C 4.398438 -7.539062 4.363281 -7.945312 4.40625 -8.4375 L 4.78125 -12 C 4.8125 -12.351562 4.726562 -12.628906 4.53125 -12.828125 C 4.34375 -13.035156 4.078125 -13.179688 3.734375 -13.265625 C 3.398438 -13.347656 3.015625 -13.390625 2.578125 -13.390625 Z M 2.578125 -14.546875 "/></g></g></g></svg>